<?xml version="1.0" encoding="UTF-8"?>
<!DOCTYPE svg PUBLIC "-//W3C//DTD SVG 1.1//EN" "http://www.w3.org/Graphics/SVG/1.1/DTD/svg11.dtd">
<svg xmlns="http://www.w3.org/2000/svg" version="1.1" width="140px" height="40px" style="shape-rendering:geometricPrecision; text-rendering:geometricPrecision; image-rendering:optimizeQuality; fill-rule:evenodd; clip-rule:evenodd" xmlns:xlink="http://www.w3.org/1999/xlink">
<g><path style="opacity:0.857" fill="#ea9c75" d="M -0.5,-0.5 C 18.1667,-0.5 36.8333,-0.5 55.5,-0.5C 55.5,12.8333 55.5,26.1667 55.5,39.5C 36.8333,39.5 18.1667,39.5 -0.5,39.5C -0.5,26.1667 -0.5,12.8333 -0.5,-0.5 Z"/></g>
<g><path style="opacity:1" fill="#cbcccb" d="M 55.5,-0.5 C 56.1667,-0.5 56.8333,-0.5 57.5,-0.5C 57.5,12.8333 57.5,26.1667 57.5,39.5C 56.8333,39.5 56.1667,39.5 55.5,39.5C 55.5,26.1667 55.5,12.8333 55.5,-0.5 Z"/></g>
<g><path style="opacity:0.008" fill="#ec6f6d" d="M 75.5,-0.5 C 77.5,-0.5 79.5,-0.5 81.5,-0.5C 84.4391,3.72078 87.1058,8.05412 89.5,12.5C 89.5,12.8333 89.5,13.1667 89.5,13.5C 87.6878,15.4605 86.6878,17.7939 86.5,20.5C 85.7972,18.3713 84.7972,16.3713 83.5,14.5C 83.5,11.5 83.5,8.5 83.5,5.5C 82.1667,5.5 80.8333,5.5 79.5,5.5C 78.5589,3.22794 77.2255,1.22794 75.5,-0.5 Z"/></g>
<g><path style="opacity:0.008" fill="#fe8000" d="M 81.5,-0.5 C 82.1667,-0.5 82.8333,-0.5 83.5,-0.5C 86.856,3.20197 88.856,7.53531 89.5,12.5C 87.1058,8.05412 84.4391,3.72078 81.5,-0.5 Z"/></g>
<g><path style="opacity:0.007" fill="#e01604" d="M 83.5,-0.5 C 84.5,-0.5 85.5,-0.5 86.5,-0.5C 90.0148,2.69646 91.6815,6.69646 91.5,11.5C 91.1667,12.5 90.5,13.1667 89.5,13.5C 89.5,13.1667 89.5,12.8333 89.5,12.5C 88.856,7.53531 86.856,3.20197 83.5,-0.5 Z"/></g>
<g><path style="opacity:1" fill="#83736b" d="M 41.5,3.5 C 37.8333,2.16667 34.1667,2.16667 30.5,3.5C 30.6107,2.88258 30.944,2.38258 31.5,2C 34.5,1.33333 37.5,1.33333 40.5,2C 41.056,2.38258 41.3893,2.88258 41.5,3.5 Z"/></g>
<g><path style="opacity:1" fill="#efefef" d="M 41.5,3.5 C 41.8333,4.5 42.5,5.16667 43.5,5.5C 43.1058,14.4105 41.4391,23.0772 38.5,31.5C 33.3603,36.6542 27.6936,37.6542 21.5,34.5C 21.0617,32.874 20.7284,31.2073 20.5,29.5C 21.3554,20.9594 23.6887,12.9594 27.5,5.5C 27.9731,4.09368 28.9731,3.42702 30.5,3.5C 34.1667,2.16667 37.8333,2.16667 41.5,3.5 Z"/></g>
<g><path style="opacity:0.936" fill="#fefbfa" d="M 79.5,5.5 C 80.8333,5.5 82.1667,5.5 83.5,5.5C 83.5,8.5 83.5,11.5 83.5,14.5C 83.5,19.8333 83.5,25.1667 83.5,30.5C 80.9556,30.8957 78.7889,30.229 77,28.5C 74.3943,23.5648 71.3943,18.8981 68,14.5C 67.5006,19.8229 67.334,25.1563 67.5,30.5C 65.8333,30.5 64.1667,30.5 62.5,30.5C 62.5,22.1667 62.5,13.8333 62.5,5.5C 64.604,5.2011 66.604,5.53443 68.5,6.5C 72.1966,11.6981 75.6966,17.0314 79,22.5C 79.4994,16.8431 79.6661,11.1764 79.5,5.5 Z"/></g>
<g><path style="opacity:0.862" fill="#fefffe" d="M 107.5,5.5 C 108.833,5.5 110.167,5.5 111.5,5.5C 111.5,6.5 111.5,7.5 111.5,8.5C 110.167,8.5 108.833,8.5 107.5,8.5C 107.5,7.5 107.5,6.5 107.5,5.5 Z"/></g>
<g><path style="opacity:0.725" fill="#fefffe" d="M 114.5,5.5 C 116.167,5.5 117.833,5.5 119.5,5.5C 119.5,13.8333 119.5,22.1667 119.5,30.5C 117.833,30.5 116.167,30.5 114.5,30.5C 114.5,22.1667 114.5,13.8333 114.5,5.5 Z"/></g>
<g><path style="opacity:1" fill="#90837d" d="M 27.5,5.5 C 23.6887,12.9594 21.3554,20.9594 20.5,29.5C 20.7284,31.2073 21.0617,32.874 21.5,34.5C 18.6967,31.7964 17.8634,28.4631 19,24.5C 20.6418,19.9343 21.9752,15.2677 23,10.5C 24.0475,8.29248 25.5475,6.62581 27.5,5.5 Z"/></g>
<g><path style="opacity:0.872" fill="#e49a74" d="M 25.5,22.5 C 25.5651,19.5718 26.2318,16.9052 27.5,14.5C 29.2275,9.25357 32.7275,7.25357 38,8.5C 37.8181,14.9123 36.8181,21.2457 35,27.5C 27.6666,33.9925 24.5,32.3258 25.5,22.5 Z"/></g>
<g><path style="opacity:0.839" fill="#fcfcfc" d="M 91.5,11.5 C 99.8818,10.5565 104.215,14.2232 104.5,22.5C 101.167,22.5 97.8333,22.5 94.5,22.5C 93.5,22.5 92.5,22.5 91.5,22.5C 91.0882,24.9726 92.0882,26.3059 94.5,26.5C 95.1174,26.6107 95.6174,26.944 96,27.5C 98.3799,24.7251 101.213,24.0584 104.5,25.5C 103.811,28.1894 102.144,29.8561 99.5,30.5C 97.8333,30.5 96.1667,30.5 94.5,30.5C 93.5,30.5 92.5,30.5 91.5,30.5C 90.5,29.8333 89.5,29.1667 88.5,28.5C 86.9493,26.0872 86.2826,23.4206 86.5,20.5C 86.6878,17.7939 87.6878,15.4605 89.5,13.5C 90.5,13.1667 91.1667,12.5 91.5,11.5 Z M 94.5,19.5 C 94.5,18.5 94.5,17.5 94.5,16.5C 96.5187,15.6562 98.1853,16.3229 99.5,18.5C 97.9547,19.4519 96.288,19.7852 94.5,19.5 Z"/></g>
<g><path style="opacity:0.862" fill="#fefffe" d="M 107.5,12.5 C 108.833,12.5 110.167,12.5 111.5,12.5C 111.5,18.5 111.5,24.5 111.5,30.5C 110.167,30.5 108.833,30.5 107.5,30.5C 107.5,24.5 107.5,18.5 107.5,12.5 Z"/></g>
<g><path style="opacity:0.973" fill="#7c6f69" d="M 25.5,22.5 C 24.5,32.3258 27.6666,33.9925 35,27.5C 36.8181,21.2457 37.8181,14.9123 38,8.5C 32.7275,7.25357 29.2275,9.25357 27.5,14.5C 28.2409,8.59111 31.5742,5.75777 37.5,6C 40.7648,9.30679 41.2648,13.1401 39,17.5C 38.1557,21.2106 37.1557,24.8772 36,28.5C 28.542,36.1473 24.542,34.8139 24,24.5C 24.2784,23.5842 24.7784,22.9175 25.5,22.5 Z"/></g>
<g><path style="opacity:0.167" fill="#ec9c74" d="M 57.5,-0.5 C 63.5,-0.5 69.5,-0.5 75.5,-0.5C 77.2255,1.22794 78.5589,3.22794 79.5,5.5C 79.6661,11.1764 79.4994,16.8431 79,22.5C 75.6966,17.0314 72.1966,11.6981 68.5,6.5C 66.604,5.53443 64.604,5.2011 62.5,5.5C 62.5,13.8333 62.5,22.1667 62.5,30.5C 64.1667,30.5 65.8333,30.5 67.5,30.5C 67.334,25.1563 67.5006,19.8229 68,14.5C 71.3943,18.8981 74.3943,23.5648 77,28.5C 78.7889,30.229 80.9556,30.8957 83.5,30.5C 82.9566,31.7421 82.6233,33.0755 82.5,34.5C 83.1873,36.1528 83.854,37.8194 84.5,39.5C 75.5,39.5 66.5,39.5 57.5,39.5C 57.5,26.1667 57.5,12.8333 57.5,-0.5 Z"/></g>
<g><path style="opacity:0.914" fill="#9b867d" d="M 43.5,5.5 C 44.1174,5.61071 44.6174,5.94404 45,6.5C 45.1367,12.9689 44.1367,19.3022 42,25.5C 41.2838,27.8791 40.1172,29.8791 38.5,31.5C 41.4391,23.0772 43.1058,14.4105 43.5,5.5 Z"/></g>
<g><path style="opacity:0.008" fill="#fe0000" d="M 94.5,16.5 C 94.5,17.5 94.5,18.5 94.5,19.5C 90.69,18.7542 90.69,17.7542 94.5,16.5 Z"/></g>
<g><path style="opacity:0.008" fill="#ff7900" d="M 94.5,22.5 C 94.5,23.8333 94.5,25.1667 94.5,26.5C 92.0882,26.3059 91.0882,24.9726 91.5,22.5C 92.5,22.5 93.5,22.5 94.5,22.5 Z"/></g>
<g><path style="opacity:0.012" fill="#fd6160" d="M 88.5,28.5 C 89.5,29.1667 90.5,29.8333 91.5,30.5C 92.8953,32.6926 93.8953,35.0259 94.5,37.5C 94.5,38.1667 94.5,38.8333 94.5,39.5C 92.5,39.5 90.5,39.5 88.5,39.5C 88.5,36.8333 88.5,34.1667 88.5,31.5C 88.5,30.5 88.5,29.5 88.5,28.5 Z"/></g>
<g><path style="opacity:0.016" fill="#fe803f" d="M 88.5,31.5 C 88.5,34.1667 88.5,36.8333 88.5,39.5C 87.8333,39.5 87.1667,39.5 86.5,39.5C 86.3354,36.4816 86.502,33.4816 87,30.5C 87.3826,31.056 87.8826,31.3893 88.5,31.5 Z"/></g>
<g><path style="opacity:0.008" fill="#fe8000" d="M 91.5,30.5 C 92.5,30.5 93.5,30.5 94.5,30.5C 94.5,32.8333 94.5,35.1667 94.5,37.5C 93.8953,35.0259 92.8953,32.6926 91.5,30.5 Z"/></g>
<g><path style="opacity:0.004" fill="#fe0000" d="M 94.5,30.5 C 96.1667,30.5 97.8333,30.5 99.5,30.5C 99.5,33.5 99.5,36.5 99.5,39.5C 97.8333,39.5 96.1667,39.5 94.5,39.5C 94.5,38.8333 94.5,38.1667 94.5,37.5C 94.5,35.1667 94.5,32.8333 94.5,30.5 Z"/></g>
<g><path style="opacity:0.027" fill="#c29476" d="M 83.5,14.5 C 84.7972,16.3713 85.7972,18.3713 86.5,20.5C 86.2826,23.4206 86.9493,26.0872 88.5,28.5C 88.5,29.5 88.5,30.5 88.5,31.5C 87.8826,31.3893 87.3826,31.056 87,30.5C 86.502,33.4816 86.3354,36.4816 86.5,39.5C 85.8333,39.5 85.1667,39.5 84.5,39.5C 83.854,37.8194 83.1873,36.1528 82.5,34.5C 82.6233,33.0755 82.9566,31.7421 83.5,30.5C 83.5,25.1667 83.5,19.8333 83.5,14.5 Z"/></g>
</svg>
